<mxfile host="app.diagrams.net" modified="2023-02-21T09:37:29.347Z" agent="5.0 (Windows NT 10.0; Win64; x64) AppleWebKit/537.36 (KHTML, like Gecko) Chrome/102.0.0.0 Safari/537.36" etag="zXBkjsZKzunaSPP8Vcc7" version="20.8.18" type="github">
  <diagram name="第 1 页" id="eINS-t5E3cE0eenCZ1yt">
    <mxGraphModel dx="776" dy="419" grid="1" gridSize="10" guides="1" tooltips="1" connect="1" arrows="1" fold="1" page="1" pageScale="1" pageWidth="827" pageHeight="1169" math="0" shadow="0">
      <root>
        <mxCell id="0" />
        <mxCell id="1" parent="0" />
        <mxCell id="LMYbII-kfyPnflBK3mxc-1" value="" style="endArrow=none;html=1;rounded=0;strokeColor=#7EA6E0;" edge="1" parent="1">
          <mxGeometry width="50" height="50" relative="1" as="geometry">
            <mxPoint x="160" y="240" as="sourcePoint" />
            <mxPoint x="520" y="240" as="targetPoint" />
          </mxGeometry>
        </mxCell>
        <mxCell id="LMYbII-kfyPnflBK3mxc-2" value="" style="endArrow=none;html=1;rounded=0;strokeColor=#7EA6E0;" edge="1" parent="1">
          <mxGeometry width="50" height="50" relative="1" as="geometry">
            <mxPoint x="160" y="310" as="sourcePoint" />
            <mxPoint x="160" y="240" as="targetPoint" />
          </mxGeometry>
        </mxCell>
        <mxCell id="LMYbII-kfyPnflBK3mxc-3" value="" style="endArrow=none;html=1;rounded=0;strokeColor=#7EA6E0;" edge="1" parent="1">
          <mxGeometry width="50" height="50" relative="1" as="geometry">
            <mxPoint x="280" y="310" as="sourcePoint" />
            <mxPoint x="280" y="240" as="targetPoint" />
          </mxGeometry>
        </mxCell>
        <mxCell id="LMYbII-kfyPnflBK3mxc-4" value="" style="endArrow=none;html=1;rounded=0;strokeColor=#7EA6E0;" edge="1" parent="1">
          <mxGeometry width="50" height="50" relative="1" as="geometry">
            <mxPoint x="400" y="310" as="sourcePoint" />
            <mxPoint x="400" y="240" as="targetPoint" />
          </mxGeometry>
        </mxCell>
        <mxCell id="LMYbII-kfyPnflBK3mxc-5" value="" style="endArrow=none;html=1;rounded=0;strokeColor=#7EA6E0;" edge="1" parent="1">
          <mxGeometry width="50" height="50" relative="1" as="geometry">
            <mxPoint x="520" y="310" as="sourcePoint" />
            <mxPoint x="520" y="240" as="targetPoint" />
          </mxGeometry>
        </mxCell>
        <mxCell id="LMYbII-kfyPnflBK3mxc-6" value="发送时延" style="rounded=0;whiteSpace=wrap;html=1;fillColor=#fa6800;strokeColor=#C73500;fontColor=#ffffff;" vertex="1" parent="1">
          <mxGeometry x="120" y="300" width="80" height="30" as="geometry" />
        </mxCell>
        <mxCell id="LMYbII-kfyPnflBK3mxc-7" value="发送时延" style="rounded=0;whiteSpace=wrap;html=1;fillColor=#fa6800;strokeColor=#C73500;fontColor=#ffffff;" vertex="1" parent="1">
          <mxGeometry x="240" y="300" width="80" height="30" as="geometry" />
        </mxCell>
        <mxCell id="LMYbII-kfyPnflBK3mxc-8" value="发送时延" style="rounded=0;whiteSpace=wrap;html=1;fillColor=#fa6800;strokeColor=#C73500;fontColor=#ffffff;" vertex="1" parent="1">
          <mxGeometry x="360" y="300" width="80" height="30" as="geometry" />
        </mxCell>
        <mxCell id="LMYbII-kfyPnflBK3mxc-9" value="发送时延" style="rounded=0;whiteSpace=wrap;html=1;fillColor=#fa6800;strokeColor=#C73500;fontColor=#ffffff;" vertex="1" parent="1">
          <mxGeometry x="480" y="300" width="80" height="30" as="geometry" />
        </mxCell>
      </root>
    </mxGraphModel>
  </diagram>
</mxfile>
